<?xml version="1.0" encoding="utf-8"?>
<!-- Generator: Adobe Illustrator 16.0.0, SVG Export Plug-In . SVG Version: 6.00 Build 0)  -->
<!DOCTYPE svg PUBLIC "-//W3C//DTD SVG 1.1//EN" "http://www.w3.org/Graphics/SVG/1.1/DTD/svg11.dtd">
<svg version="1.1" id="Layer_1" xmlns="http://www.w3.org/2000/svg" xmlns:xlink="http://www.w3.org/1999/xlink" x="0px" y="0px"
	 width="826.063px" height="120px" viewBox="19.449 28.103 826.063 120" enable-background="new 19.449 28.103 826.063 120"
	 xml:space="preserve">
<g id="Layer_2">
	<rect x="-31.256" y="-149.667" fill="#476C5E" width="960" height="560"/>
</g>
<g id="Layer_1_1_">
	<rect x="27.564" y="58.333" fill="none" width="817.949" height="75.641"/>
	<g enable-background="new    ">
		<path fill="#FFFFFF" d="M53.917,102.542h4.752v11.808H29.437v-11.808h4.32v-32.4h-4.32V58.333h33.768
			c2.927,0,5.58,0.288,7.956,0.863c2.376,0.576,4.379,1.501,6.012,2.772c1.631,1.272,2.891,2.94,3.78,5.004
			c0.887,2.064,1.332,4.584,1.332,7.56c0,3.168-0.637,5.929-1.908,8.28c-1.272,2.353-3.132,4.009-5.58,4.968l0.072,0.721
			c4.608,0.72,6.912,3.553,6.912,8.496v5.544h3.384v11.808H62.34v-16.92c0-1.44-0.156-2.604-0.468-3.492
			c-0.313-0.888-0.817-1.56-1.512-2.016c-0.696-0.456-1.573-0.768-2.628-0.937c-1.056-0.167-2.329-0.252-3.816-0.252V102.542z
			 M57.805,81.949c1.392,0,2.436-0.359,3.132-1.08c0.695-0.72,1.044-1.896,1.044-3.527V74.75c0-1.632-0.349-2.809-1.044-3.528
			c-0.696-0.72-1.74-1.08-3.132-1.08h-3.888v11.808H57.805z"/>
		<path fill="#FFFFFF" d="M108.492,73.309c3.696,0,6.768,0.54,9.216,1.62c2.448,1.08,4.416,2.484,5.904,4.212
			c1.487,1.728,2.531,3.696,3.132,5.904c0.6,2.208,0.9,4.44,0.9,6.695v5.185h-23.328v0.432c0,1.729,0.492,3.024,1.476,3.889
			c0.983,0.863,2.772,1.296,5.364,1.296c3.168,0,6.072-0.24,8.712-0.721c2.64-0.479,4.824-1.008,6.552-1.584v11.521
			c-0.864,0.432-1.861,0.853-2.988,1.26c-1.128,0.408-2.412,0.792-3.852,1.152c-1.44,0.359-3.073,0.647-4.896,0.863
			c-1.825,0.217-3.888,0.324-6.192,0.324c-3.312,0-6.312-0.432-9-1.296c-2.688-0.864-4.98-2.171-6.876-3.924
			c-1.896-1.752-3.348-3.936-4.356-6.552c-1.008-2.616-1.512-5.699-1.512-9.252c0-3.504,0.504-6.576,1.512-9.217
			c1.008-2.639,2.459-4.835,4.356-6.588c1.896-1.751,4.188-3.06,6.876-3.924C102.18,73.741,105.18,73.309,108.492,73.309z
			 M108.492,86.125c-1.393,0-2.437,0.359-3.132,1.08c-0.696,0.72-1.044,1.896-1.044,3.527v0.433h8.352v-0.433
			c0-1.631-0.349-2.808-1.044-3.527C110.928,86.485,109.883,86.125,108.492,86.125z"/>
		<path fill="#FFFFFF" d="M146.652,96.925c0,1.776,0.492,3.156,1.476,4.14c0.983,0.984,2.628,1.477,4.932,1.477
			c2.352,0,4.704-0.12,7.056-0.36c2.352-0.239,4.632-0.552,6.84-0.936v11.304c-0.913,0.336-1.897,0.673-2.952,1.008
			c-1.057,0.336-2.232,0.637-3.528,0.9c-1.296,0.263-2.725,0.479-4.284,0.647c-1.561,0.168-3.324,0.252-5.292,0.252
			c-3.36,0-6.384-0.432-9.072-1.296c-2.688-0.864-4.98-2.171-6.876-3.924c-1.896-1.752-3.348-3.936-4.356-6.552
			c-1.008-2.616-1.512-5.699-1.512-9.252c0-3.504,0.504-6.576,1.512-9.217c1.008-2.639,2.459-4.835,4.356-6.588
			c1.896-1.751,4.188-3.06,6.876-3.924c2.688-0.864,5.688-1.296,9-1.296c2.016,0,3.852,0.144,5.508,0.432
			c1.656,0.288,3.155,0.648,4.5,1.08c1.343,0.433,2.556,0.913,3.636,1.44c1.08,0.528,2.052,1.032,2.916,1.512v14.256h-12.384v-1.296
			c0-1.631-0.349-2.808-1.044-3.527c-0.696-0.721-1.741-1.08-3.132-1.08c-1.344,0-2.376,0.359-3.096,1.08
			c-0.72,0.72-1.08,1.896-1.08,3.527V96.925z"/>
		<path fill="#FFFFFF" d="M189.419,102.542h3.168v11.808h-22.896v-11.808h3.168V86.125h-3.168V74.317h19.728V102.542z
			 M174.587,58.333h13.248v12.023h-13.248V58.333z"/>
		<path fill="#FFFFFF" d="M218.291,130.333h-24.696v-11.809h3.168V86.125h-3.168V74.317h19.728v4.896
			c0.432-0.576,0.996-1.212,1.692-1.908c0.695-0.695,1.523-1.332,2.484-1.908c0.96-0.576,2.016-1.067,3.168-1.476
			c1.152-0.407,2.423-0.612,3.816-0.612c4.992,0,8.7,1.836,11.124,5.508c2.423,3.672,3.636,8.845,3.636,15.517
			s-1.213,11.844-3.636,15.516c-2.424,3.672-6.132,5.508-11.124,5.508c-1.393,0-2.664-0.204-3.816-0.611
			c-1.152-0.408-2.208-0.9-3.168-1.477c-0.96-0.576-1.789-1.212-2.484-1.908c-0.696-0.695-1.26-1.332-1.692-1.908v9.072h4.968
			V130.333z M221.675,90.733c0-1.631-0.349-2.808-1.044-3.527c-0.697-0.721-1.741-1.08-3.132-1.08c-1.393,0-2.437,0.359-3.132,1.08
			c-0.696,0.72-1.044,1.896-1.044,3.527v7.2c0,1.633,0.348,2.808,1.044,3.528c0.695,0.72,1.739,1.08,3.132,1.08
			c1.392,0,2.436-0.36,3.132-1.08c0.695-0.721,1.044-1.896,1.044-3.528V90.733z"/>
		<path fill="#FFFFFF" d="M262.426,73.309c3.696,0,6.768,0.54,9.216,1.62c2.448,1.08,4.416,2.484,5.904,4.212
			c1.487,1.728,2.531,3.696,3.132,5.904c0.6,2.208,0.9,4.44,0.9,6.695v5.185H258.25v0.432c0,1.729,0.492,3.024,1.476,3.889
			c0.983,0.863,2.772,1.296,5.364,1.296c3.168,0,6.072-0.24,8.712-0.721c2.64-0.479,4.824-1.008,6.552-1.584v11.521
			c-0.864,0.432-1.861,0.853-2.988,1.26c-1.128,0.408-2.412,0.792-3.852,1.152c-1.44,0.359-3.073,0.647-4.896,0.863
			c-1.825,0.217-3.888,0.324-6.192,0.324c-3.312,0-6.312-0.432-9-1.296c-2.688-0.864-4.98-2.171-6.876-3.924
			c-1.896-1.752-3.348-3.936-4.356-6.552c-1.008-2.616-1.512-5.699-1.512-9.252c0-3.504,0.504-6.576,1.512-9.217
			c1.008-2.639,2.459-4.835,4.356-6.588c1.896-1.751,4.188-3.06,6.876-3.924C256.114,73.741,259.114,73.309,262.426,73.309z
			 M262.426,86.125c-1.393,0-2.437,0.359-3.132,1.08c-0.696,0.72-1.044,1.896-1.044,3.527v0.433h8.352v-0.433
			c0-1.631-0.349-2.808-1.044-3.527C264.862,86.485,263.817,86.125,262.426,86.125z"/>
		<path fill="#FFFFFF" d="M284.962,103.117c3.6,0.529,6.552,0.877,8.856,1.044c2.304,0.169,4.127,0.253,5.472,0.253
			c2.111,0,3.503-0.168,4.176-0.505c0.672-0.335,1.008-0.792,1.008-1.367c0-0.624-0.36-1.092-1.08-1.404
			c-0.72-0.312-2.208-0.636-4.464-0.972c-4.993-0.672-8.917-2.112-11.772-4.32c-2.856-2.207-4.284-5.328-4.284-9.36
			c0-1.872,0.335-3.611,1.008-5.22c0.672-1.607,1.751-2.999,3.24-4.176c1.487-1.176,3.395-2.1,5.724-2.772
			c2.328-0.672,5.124-1.008,8.388-1.008c3.552,0,6.756,0.206,9.612,0.616c2.855,0.411,5.22,0.931,7.092,1.559v9.777
			c-2.304-0.288-4.633-0.527-6.984-0.72c-2.353-0.191-4.584-0.288-6.696-0.288c-2.016,0-3.445,0.144-4.284,0.431
			c-0.841,0.288-1.26,0.719-1.26,1.293c0,0.287,0.072,0.54,0.216,0.755c0.144,0.216,0.42,0.407,0.828,0.574
			c0.407,0.168,0.972,0.312,1.692,0.431c0.72,0.12,1.631,0.228,2.736,0.323c5.567,0.527,9.671,1.893,12.312,4.095
			c2.639,2.203,3.96,5.34,3.96,9.41c0,4.263-1.465,7.627-4.392,10.093c-2.928,2.467-7.513,3.699-13.752,3.699
			c-3.648,0-6.973-0.216-9.972-0.647c-3-0.433-5.46-0.96-7.38-1.584V103.117z"/>
		<path fill="#FFFFFF" d="M343.785,74.317h3.312c0-5.807,1.44-10.091,4.32-12.852c2.88-2.76,7.031-4.141,12.456-4.141
			c2.063,0,3.984,0.181,5.76,0.54c1.775,0.36,3.264,0.805,4.464,1.332v11.305c-1.2-0.145-2.196-0.24-2.988-0.288
			s-1.668-0.072-2.628-0.072c-1.872,0-3.168,0.313-3.888,0.936c-0.72,0.625-1.08,1.705-1.08,3.24h5.616v11.809h-5.616v16.416h5.616
			v11.808h-25.344v-11.808h3.168V86.125h-3.168V74.317z"/>
		<path fill="#FFFFFF" d="M413.912,94.333c0,3.553-0.504,6.636-1.512,9.252c-1.008,2.616-2.46,4.8-4.356,6.552
			c-1.896,1.753-4.188,3.06-6.876,3.924c-2.688,0.864-5.688,1.296-9,1.296s-6.312-0.432-9-1.296
			c-2.688-0.864-4.98-2.171-6.876-3.924c-1.896-1.752-3.348-3.936-4.356-6.552c-1.008-2.616-1.512-5.699-1.512-9.252
			c0-3.504,0.504-6.576,1.512-9.217c1.008-2.639,2.459-4.835,4.356-6.588c1.896-1.751,4.188-3.06,6.876-3.924
			c2.688-0.864,5.688-1.296,9-1.296s6.312,0.432,9,1.296c2.688,0.864,4.979,2.173,6.876,3.924c1.896,1.753,3.348,3.949,4.356,6.588
			C413.408,87.757,413.912,90.83,413.912,94.333z M392.167,102.542c1.392,0,2.436-0.36,3.132-1.08
			c0.695-0.721,1.044-1.896,1.044-3.528v-7.2c0-1.631-0.349-2.808-1.044-3.527c-0.696-0.721-1.741-1.08-3.132-1.08
			c-1.393,0-2.437,0.359-3.132,1.08c-0.696,0.72-1.044,1.896-1.044,3.527v7.2c0,1.633,0.348,2.808,1.044,3.528
			C389.731,102.181,390.775,102.542,392.167,102.542z"/>
		<path fill="#FFFFFF" d="M415.783,74.317h19.728v4.752l0.72,0.216c0.335-0.671,0.767-1.367,1.296-2.088
			c0.527-0.72,1.176-1.367,1.944-1.943c0.768-0.576,1.644-1.044,2.628-1.404c0.983-0.36,2.1-0.54,3.348-0.54
			c1.008,0,1.991,0.072,2.952,0.216c0.96,0.145,1.919,0.408,2.88,0.792v12.456c-1.584-0.288-2.916-0.468-3.996-0.54
			s-1.98-0.107-2.699-0.107c-3.168,0-5.473,0.708-6.913,2.124s-2.16,3.852-2.16,7.308v6.984h6.552v11.808h-26.28v-11.808h3.168
			V86.125h-3.168V74.317z"/>
		<path fill="#FFFFFF" d="M508.663,70.141h-8.712v11.376h6.336v8.208h-6.336v12.816h8.712V91.166h16.128v23.184h-49.32v-11.808h4.32
			v-32.4h-4.32V58.333h49.32v21.743h-16.128V70.141z"/>
		<path fill="#FFFFFF" d="M549.27,74.317v11.809h-3.24l3.889,16.416h0.72l3.888-16.416h-3.24V74.317h21.168v11.809h-3.096
			l-7.488,28.224h-24.336l-7.704-28.224h-3.023V74.317H549.27z"/>
		<path fill="#FFFFFF" d="M595.062,73.309c3.695,0,6.768,0.54,9.216,1.62s4.415,2.484,5.904,4.212
			c1.487,1.728,2.531,3.696,3.132,5.904c0.6,2.208,0.899,4.44,0.899,6.695v5.185h-23.328v0.432c0,1.729,0.492,3.024,1.477,3.889
			c0.983,0.863,2.771,1.296,5.364,1.296c3.168,0,6.071-0.24,8.712-0.721c2.639-0.479,4.823-1.008,6.552-1.584v11.521
			c-0.864,0.432-1.86,0.853-2.988,1.26c-1.128,0.408-2.412,0.792-3.852,1.152c-1.44,0.359-3.072,0.647-4.896,0.863
			c-1.824,0.217-3.888,0.324-6.191,0.324c-3.313,0-6.313-0.432-9-1.296c-2.689-0.864-4.98-2.171-6.876-3.924
			c-1.897-1.752-3.349-3.936-4.356-6.552s-1.512-5.699-1.512-9.252c0-3.504,0.504-6.576,1.512-9.217
			c1.008-2.639,2.459-4.835,4.356-6.588c1.896-1.751,4.187-3.06,6.876-3.924C588.749,73.741,591.749,73.309,595.062,73.309z
			 M595.062,86.125c-1.393,0-2.438,0.359-3.132,1.08c-0.697,0.72-1.045,1.896-1.045,3.527v0.433h8.353v-0.433
			c0-1.631-0.349-2.808-1.044-3.527C597.497,86.485,596.453,86.125,595.062,86.125z"/>
		<path fill="#FFFFFF" d="M616.373,74.317h19.729v4.752l0.72,0.216c0.335-0.671,0.768-1.367,1.296-2.088
			c0.527-0.72,1.176-1.367,1.944-1.943c0.767-0.576,1.644-1.044,2.628-1.404c0.983-0.36,2.099-0.54,3.348-0.54
			c1.008,0,1.991,0.072,2.952,0.216c0.96,0.145,1.919,0.408,2.88,0.792v12.456c-1.584-0.288-2.916-0.468-3.996-0.54
			s-1.979-0.107-2.7-0.107c-3.168,0-5.472,0.708-6.912,2.124c-1.439,1.416-2.159,3.852-2.159,7.308v6.984h6.552v11.808h-26.28
			v-11.808h3.168V86.125h-3.168V74.317z"/>
		<path fill="#FFFFFF" d="M672.461,97.933c0,1.633,0.348,2.808,1.044,3.528c0.695,0.72,1.739,1.08,3.132,1.08
			c1.392,0,2.436-0.36,3.132-1.08c0.695-0.721,1.044-1.896,1.044-3.528V86.125h-3.888V74.317h20.448v36
			c0,7.2-1.813,12.504-5.437,15.912s-9.036,5.112-16.235,5.112c-3.456,0-6.805-0.229-10.044-0.685
			c-3.24-0.456-5.988-1.02-8.244-1.691v-11.809c2.639,0.479,5.147,0.828,7.523,1.044c2.376,0.217,5.076,0.324,8.101,0.324
			c2.592,0,4.536-0.396,5.832-1.188s1.943-2.412,1.943-4.86v-3.024c-0.575,0.625-1.236,1.272-1.979,1.944
			c-0.745,0.673-1.597,1.296-2.556,1.872c-0.961,0.576-2.064,1.068-3.313,1.477c-1.249,0.407-2.688,0.611-4.32,0.611
			c-3.937,0-7.044-1.404-9.323-4.212c-2.281-2.808-3.421-7.211-3.421-13.212V86.125h-3.168V74.317h19.729V97.933z"/>
		<path fill="#FFFFFF" d="M743.309,94.333c0,3.553-0.505,6.636-1.513,9.252s-2.46,4.8-4.355,6.552
			c-1.897,1.753-4.188,3.06-6.876,3.924c-2.689,0.864-5.688,1.296-9,1.296c-3.313,0-6.313-0.432-9-1.296
			c-2.689-0.864-4.98-2.171-6.876-3.924c-1.897-1.752-3.349-3.936-4.356-6.552s-1.512-5.699-1.512-9.252
			c0-3.504,0.504-6.576,1.512-9.217c1.008-2.639,2.459-4.835,4.356-6.588c1.896-1.751,4.187-3.06,6.876-3.924
			c2.688-0.864,5.688-1.296,9-1.296c3.312,0,6.311,0.432,9,1.296c2.688,0.864,4.979,2.173,6.876,3.924
			c1.896,1.753,3.348,3.949,4.355,6.588C742.804,87.757,743.309,90.83,743.309,94.333z M721.564,102.542
			c1.392,0,2.436-0.36,3.132-1.08c0.695-0.721,1.044-1.896,1.044-3.528v-7.2c0-1.631-0.349-2.808-1.044-3.527
			c-0.696-0.721-1.74-1.08-3.132-1.08c-1.393,0-2.438,0.359-3.132,1.08c-0.697,0.72-1.045,1.896-1.045,3.527v7.2
			c0,1.633,0.348,2.808,1.045,3.528C719.127,102.181,720.172,102.542,721.564,102.542z"/>
		<path fill="#FFFFFF" d="M769.948,102.542h3.168V90.733c0-1.631-0.35-2.808-1.044-3.527c-0.697-0.721-1.741-1.08-3.133-1.08
			c-1.393,0-2.437,0.359-3.132,1.08c-0.696,0.72-1.044,1.896-1.044,3.527v11.809h3.168v11.808h-22.896v-11.808h3.168V86.125h-3.168
			V74.317h19.728v4.896c0.576-0.576,1.224-1.212,1.944-1.908c0.72-0.695,1.571-1.332,2.556-1.908c0.983-0.576,2.1-1.067,3.348-1.476
			c1.248-0.407,2.688-0.612,4.32-0.612c3.936,0,7.044,1.404,9.324,4.212c2.279,2.809,3.42,7.213,3.42,13.212v11.809h3.168v11.808
			h-22.896V102.542z"/>
		<path fill="#FFFFFF" d="M815.739,73.309c3.695,0,6.768,0.54,9.216,1.62s4.415,2.484,5.904,4.212
			c1.487,1.728,2.531,3.696,3.132,5.904c0.6,2.208,0.899,4.44,0.899,6.695v5.185h-23.328v0.432c0,1.729,0.492,3.024,1.477,3.889
			c0.983,0.863,2.771,1.296,5.364,1.296c3.168,0,6.071-0.24,8.712-0.721c2.639-0.479,4.823-1.008,6.552-1.584v11.521
			c-0.864,0.432-1.86,0.853-2.988,1.26c-1.128,0.408-2.412,0.792-3.852,1.152c-1.44,0.359-3.072,0.647-4.896,0.863
			c-1.824,0.217-3.888,0.324-6.191,0.324c-3.313,0-6.313-0.432-9-1.296c-2.689-0.864-4.98-2.171-6.876-3.924
			c-1.897-1.752-3.349-3.936-4.356-6.552s-1.512-5.699-1.512-9.252c0-3.504,0.504-6.576,1.512-9.217
			c1.008-2.639,2.459-4.835,4.356-6.588c1.896-1.751,4.187-3.06,6.876-3.924C809.427,73.741,812.427,73.309,815.739,73.309z
			 M815.739,86.125c-1.393,0-2.438,0.359-3.132,1.08c-0.697,0.72-1.045,1.896-1.045,3.527v0.433h8.353v-0.433
			c0-1.631-0.349-2.808-1.044-3.527C818.175,86.485,817.131,86.125,815.739,86.125z"/>
	</g>
</g>
</svg>
